<svg width="11" height="13" viewBox="0 0 11 13" fill="none" xmlns="http://www.w3.org/2000/svg">
<path d="M10.63 12.2925V12.0625C10.5725 12.0325 10.515 11.9975 10.46 11.965L10.2625 12.08C10.0697 12.1919 9.84461 12.2348 9.62421 12.2016C9.40382 12.1684 9.20129 12.0612 9.05 11.8975C8.58975 11.3995 8.24641 10.805 8.045 10.1575C7.97798 9.94459 7.98582 9.71516 8.06723 9.50732C8.14863 9.29948 8.2987 9.12575 8.4925 9.015L8.69 8.9C8.6875 8.835 8.6875 8.77 8.69 8.705L8.4925 8.59C8.29857 8.47939 8.14839 8.30567 8.06696 8.09779C7.98554 7.88991 7.97779 7.6604 8.045 7.4475C8.0675 7.375 8.1 7.3025 8.125 7.23C8.03 7.2225 7.9375 7.2 7.84 7.2H7.4225C6.85106 7.46352 6.22927 7.59999 5.6 7.59999C4.97073 7.59999 4.34894 7.46352 3.7775 7.2H3.36C2.46893 7.2002 1.61442 7.55426 0.984341 8.18434C0.354262 8.81442 0.000198832 9.66893 0 10.56L0 11.6C0 11.9183 0.126428 12.2235 0.351472 12.4485C0.576515 12.6736 0.88174 12.8 1.2 12.8H10C10.243 12.7997 10.4801 12.7256 10.68 12.5875C10.6483 12.4923 10.6314 12.3928 10.63 12.2925ZM5.6 6.4C6.2329 6.4 6.85159 6.21233 7.37782 5.8607C7.90406 5.50908 8.31421 5.00931 8.55641 4.42459C8.79862 3.83986 8.86199 3.19645 8.73851 2.57571C8.61504 1.95497 8.31027 1.38479 7.86274 0.93726C7.41521 0.489732 6.84503 0.184961 6.22429 0.0614885C5.60355 -0.0619842 4.96014 0.0013865 4.37541 0.243587C3.79069 0.485787 3.29092 0.895939 2.9393 1.42218C2.58768 1.94841 2.4 2.5671 2.4 3.2C2.4 4.04869 2.73714 4.86263 3.33726 5.46274C3.93737 6.06286 4.75131 6.4 5.6 6.4Z" fill="#213F7D"/>
</svg>
